<svg xmlns="http://www.w3.org/2000/svg" xmlns:xlink="http://www.w3.org/1999/xlink" version="1.1" x="0px" y="0px" viewBox="0 0 512 640" style="enable-background:new 0 0 512 512;" xml:space="preserve">
  <path d="M381.47,345.78c-0.25-1-0.93-1.84-1.86-2.29c-3.12-1.52-6.24-2.97-9.27-4.29c-22.26-9.75-47.84-10.03-70.2-0.78  c-18.81,7.78-33.87,21.43-43.29,38.95v-80.34c3.59-0.14,7.17-0.48,10.68-1.03c20.22-3.16,39.02-13.23,52.95-28.35  c14.07-15.27,22.57-35.11,23.93-55.86l6.96-106.45c0.26-3.96-1.7-7.68-5.11-9.71c-3.41-2.02-7.6-1.97-10.94,0.14  c-4.8,3.03-9.46,6.03-14.01,9c-3.83-18.92-9.57-36.48-18.15-52c-1.85-3.34-6.02-4.62-9.4-2.84c-4.89,2.57-9.68,5.23-14.39,7.98  l0-0.02c0,0-0.01,0-0.01,0.01c-20.77,12.07-40.26,26.03-59.24,42.39c-0.66,0.57-1.47,0.85-2.28,0.85c-1.02,0-2.03-0.44-2.72-1.3  c-1.21-1.49-0.88-3.72,0.58-4.97c9.8-8.45,19.74-16.26,29.93-23.52c0.57-0.41,0.56-1.26-0.03-1.64c-3.26-2.17-6.56-4.29-9.86-6.33  c-1.42-0.88-2.11-2.64-1.53-4.2c0.8-2.16,3.3-2.94,5.14-1.79c4.38,2.72,8.77,5.57,13.07,8.48c0.34,0.23,0.77,0.23,1.11,0  c7.87-5.32,15.9-10.33,24.13-15.05c0.44-0.25,0.62-0.79,0.43-1.25c-4.97-11.95-12.33-23.01-21.93-32.43h0  c-1.55-1.52-4.04-1.52-5.59,0c-11.67,11.44-20.03,25.32-24.8,40.26c-4.42-2.56-8.92-5.06-13.5-7.46c-3.38-1.77-7.55-0.5-9.39,2.84  c-8.52,15.41-14.24,32.84-18.07,51.62c-4.35-2.83-8.81-5.7-13.43-8.62c-3.34-2.11-7.54-2.17-10.94-0.14  c-3.41,2.03-5.37,5.75-5.11,9.71l6.96,106.45c2.65,40.58,32.26,74.84,71.98,83.3c0.25,0.05,0.49,0.08,0.73,0.08  c1.62,0,3.07-1.13,3.42-2.77c0.4-1.89-0.8-3.75-2.69-4.15c-36.68-7.81-64.01-39.44-66.46-76.91l-6.96-106.45  c-0.09-1.34,0.55-2.54,1.7-3.23c1.15-0.68,2.5-0.67,3.63,0.05c32.56,20.56,58.17,38.91,80.3,57.52  c-14.78,12.84-27.74,25.71-39.42,39.03c-9.51,10.85-14.75,24.8-14.75,39.26c0,1.93,1.57,3.5,3.5,3.5s3.5-1.57,3.5-3.5  c0-12.77,4.62-25.07,13.02-34.65c29.95-34.16,68.58-65.36,125.27-101.17c1.12-0.71,2.48-0.73,3.63-0.05  c1.15,0.69,1.79,1.89,1.7,3.23l-6.96,106.45c-1.25,19.16-9.1,37.47-22.09,51.57c-12.86,13.96-30.22,23.25-48.89,26.17  c-4.3,0.67-8.71,1.01-13.1,1.01c-1.93,0-3.5,1.57-3.5,3.5v146.5c-9.05-16.56-23.39-29.46-41.25-36.85  c-21.44-8.87-45.98-8.6-67.33,0.75c-2.91,1.28-5.9,2.66-8.88,4.11c-0.93,0.45-1.61,1.29-1.86,2.29c-0.25,1-0.05,2.06,0.55,2.9  c8.55,11.93,17.38,22.46,26.24,31.28c16.05,15.99,37.62,24.52,59.6,24.52c10.08,0,20.24-1.8,29.99-5.49  c0.96-0.36,1.94-0.74,2.93-1.13V496c0,1.93,1.57,3.5,3.5,3.5s3.5-1.57,3.5-3.5V395.57c0.53-1.89,1.23-3.94,2.08-6.1  c6.9-17.62,19.54-31.84,36.01-40.81c-8.18,6.85-14.44,15.91-17.91,26.2c-0.31,0.91,0.73,1.68,1.52,1.14  c14.36-9.82,30.09-17.28,46.93-22.24c1.82-0.53,3.85,0.36,4.47,2.15c0.67,1.91-0.4,3.96-2.32,4.52  c-18.92,5.55-36.38,14.39-51.98,26.3c-0.9,0.69-1.48,1.73-1.55,2.86c-0.09,1.33-0.14,2.67-0.14,4.02v0c0,1.7,0.46,3.3,1.26,4.69  c-1.78-0.36-3.55-0.78-5.31-1.27c-1.86-0.51-3.79,0.58-4.3,2.45c-0.51,1.86,0.58,3.79,2.45,4.3c7.7,2.12,15.55,3.15,23.34,3.15  c23,0,45.5-8.99,62.14-25.57c9.25-9.22,18.47-20.2,27.39-32.65C381.52,347.84,381.72,346.78,381.47,345.78z M244.44,457.06  c-3.92,1.48-7.91,2.62-11.93,3.45c0.71-1.28,1.11-2.75,1.11-4.3v0c0-1.32-0.05-2.64-0.14-3.94c-0.08-1.11-0.64-2.13-1.51-2.81  c-16.81-13.21-35.73-22.98-56.3-29.03c-1.61-0.47-2.75-1.98-2.61-3.65c0.19-2.29,2.39-3.71,4.48-3.1  c18.46,5.41,35.64,13.7,51.25,24.68c0.8,0.56,1.86-0.23,1.53-1.15c-3.29-9.16-8.91-17.25-16.16-23.51  c15.4,8.58,27.22,22.02,33.72,38.6c0.4,1.03,0.77,2.03,1.1,3C247.41,455.92,245.91,456.51,244.44,457.06z" />
</svg>