<svg width="1440" height="1119" viewBox="0 0 1440 1119" fill="none" xmlns="http://www.w3.org/2000/svg">
<g clip-path="url(#clip0_9_2)">
<path d="M1440 0H0V1119H1440V0Z" fill="#7F2A3C"/>
<path d="M61 118V89H57V122L58 124L86 140L89 136L63 122L148 73L215 111L233 122L208 136L210 140L239 124L240 122V89H236V118L151 69V0H146V69L61 118Z" fill="#FFF0DE" fill-opacity="0.05"/>
<path d="M181 19H177V52L178 54L206 70L209 66L184 52L240 19V14L181 48V19ZM0 19L28 3L113 52L88 66L90 70L119 54L120 52V19H115V48L33 0H24L0 14V19ZM236 258L151 209V111L176 125L178 121L150 105H147L119 121L121 125L146 111V209L61 258V229H57V261L58 263L86 280L89 276L63 261L82 251L83 250L148 212L213 250L233 261L208 276L210 280L239 263L240 261V229H236V258Z" fill="#FFF0DE" fill-opacity="0.05"/>
<path d="M181 159H177V192L178 193L206 210L209 206L184 192L240 159V154L181 188V159ZM240 53V51H239L240 53ZM113 192L88 206L90 210L119 193L120 192V159H116V188L31 139V41L56 55L58 51L29 35H27L0 51V53L1 55L26 41V139L0 154V159L28 142L113 192ZM176 265L178 261L150 245L148 244L147 245L119 261L121 265L146 251V280H151V251L176 265Z" fill="#FFF0DE" fill-opacity="0.05"/>
<path d="M31 181L56 195L58 191L29 175H27L0 191V193L1 195L26 181V279L24 280H33L31 279V181ZM240 193V191H239L240 193ZM61 397V369H57V401L58 403L86 420L89 416L63 401L148 352L215 391L233 401L208 416L210 420L239 403L240 401V369H236V397L151 348V280H146V348L61 397Z" fill="#FFF0DE" fill-opacity="0.05"/>
<path d="M181 299H177V331L178 333L206 350L209 346L184 331L240 299V294L181 328V299ZM0 299L28 282L113 331L88 346L90 350L119 333L120 331V299H115V328L33 280H24L0 294V299ZM236 537L151 488V390L176 405L178 401L150 385L148 384L147 385L119 401L121 405L146 390V488L61 537V509H57V541L58 543L86 560L89 556L63 541L82 531L83 530L148 492L213 529L233 541L208 556L210 560L239 543L240 541V509H236V537Z" fill="#FFF0DE" fill-opacity="0.05"/>
<path d="M181 439H177V471L178 473L206 490L209 486L184 471L240 439V434L181 467V439ZM240 333V330L239 331L240 333ZM113 471L88 486L90 490L119 473L120 471V439H116V467L31 418V320L56 335L58 331L29 315L28 314L27 315L0 330V333L1 335L26 320V418L0 434V439L28 422L113 471ZM176 545L178 541L150 524H147L119 541L121 545L146 530V560H151V530L176 545Z" fill="#FFF0DE" fill-opacity="0.05"/>
<path d="M31 460L56 475L58 471L29 454H27L0 470V473L1 475L26 460V558L24 559H33L31 558V460ZM240 473V470L239 471L240 473ZM61 677V648H57V681L58 683L86 699L89 696L63 681L148 632L215 670L233 681L208 696L210 699L239 683L240 681V648H236V677L151 628V560H146V628L61 677Z" fill="#FFF0DE" fill-opacity="0.05"/>
<path d="M181 578H177V611L178 613L206 630L209 626L184 611L240 579V573L181 607V578ZM0 579L28 562L113 611L88 626L90 630L119 613L120 611V578H115V607L33 560H24L0 573V579ZM236 817L151 768V670L176 685L178 681L150 664H147L119 681L121 685L146 670V768L61 817V788H57V821L58 823L86 839L89 836L63 821L82 810H83L148 772L213 809L233 821L208 835L210 839L239 823L240 821V788H236V817Z" fill="#FFF0DE" fill-opacity="0.05"/>
<path d="M181 718H177V751L178 753L206 769L209 766L184 751L240 718V713L181 747V718ZM240 613V610L239 611L240 613ZM113 751L88 766L90 769L119 753L120 751V718H116V747L31 698V600L56 615L58 611L29 594H27L0 610V613L1 615L26 600V698L0 713V718L28 702L113 751ZM176 824L178 821L150 804H147L119 821L121 824L146 810V839H151V810L176 824Z" fill="#FFF0DE" fill-opacity="0.05"/>
<path d="M31 740L56 755L58 751L29 734H27L0 750V753L1 755L26 740V838L24 839H33L31 838V740ZM240 753V750L239 751L240 753ZM61 957V928H57V961L58 963L86 979L89 975L63 961L148 912L215 950L233 961L208 975L210 979L239 963L240 961V928H236V957L151 908V839H146V908L61 957Z" fill="#FFF0DE" fill-opacity="0.05"/>
<path d="M181 858H177V891L178 893L206 909L209 905L184 891L240 858V853L181 887V858ZM0 858L28 842L113 891L88 905L90 909L119 893L120 891V858H115V887L33 839H24L0 853V858ZM236 1097L151 1048V950L176 964L178 960L150 944H147L119 960L121 964L146 950V1048L61 1097V1068H57V1101L58 1103L86 1119L89 1115L63 1101L82 1090L83 1089L148 1052L213 1089L233 1101L208 1115L210 1119L239 1103L240 1101V1068H236V1097Z" fill="#FFF0DE" fill-opacity="0.05"/>
<path d="M181 998H177V1031L178 1033L206 1049L209 1045L184 1031L240 998V993L181 1027V998ZM240 892V890L239 891L240 892ZM113 1031L88 1045L90 1049L119 1033L120 1031V998H116V1027L31 978V880L56 894L58 891L29 874H27L0 890V892L1 894L26 880V978L0 993V998L28 982L113 1031ZM176 1104L178 1100L150 1084H147L119 1100L121 1104L146 1090V1119H151V1090L176 1104Z" fill="#FFF0DE" fill-opacity="0.05"/>
<path d="M31 1020L56 1034L58 1030L29 1014H27L0 1030V1032L1 1034L26 1020V1118L24 1119H33L31 1118V1020ZM240 1032V1030H239L240 1032ZM301 118V89H297V122L298 124L326 140L329 136L304 122L388 73L455 111L473 122L448 136L451 140L479 124L480 122V89H476V118L391 69V0H386V69L301 118Z" fill="#FFF0DE" fill-opacity="0.05"/>
<path d="M421 19H417V52L418 54L446 70L449 66L424 52L480 19V14L421 48V19ZM240 19L268 3L353 52L328 66L330 70L359 54L360 52V19H355V48L273 0H264L240 14V19ZM476 258L391 209V111L416 125L418 121L390 105H387L359 121L361 125L386 111V209L301 258V229H297V261L298 263L326 280L329 276L304 261L322 251L323 250L389 213L453 250L473 261L448 276L451 280L479 264L480 262V229H476V258Z" fill="#FFF0DE" fill-opacity="0.05"/>
<path d="M421 159H417V192L418 193L446 210L449 206L424 192L480 159V154L421 188V159ZM480 53V51H479L480 53ZM353 192L328 206L330 210L359 193L360 192V159H356V188L271 139V41L296 55L298 51L270 35H267L240 51V53L241 55L266 41V139L240 154V159L268 142L353 192ZM416 265L418 261L390 245L388 244L387 245L359 261L361 265L386 251V280H391V251L416 265Z" fill="#FFF0DE" fill-opacity="0.05"/>
<path d="M271 181L296 195L298 191L269 175H267L240 191V193L241 195L266 181V279L264 280H273L271 279V181ZM480 193V191H479L480 193ZM301 397V369H297V401L298 403L326 420L329 416L304 401L388 352L455 391L473 401L448 416L451 420L479 403L480 401V369H476V397L391 348V280H386V348L301 397Z" fill="#FFF0DE" fill-opacity="0.05"/>
<path d="M421 299H417V331L418 333L446 350L449 346L424 331L480 299V294L421 328V299ZM240 299L268 282L353 331L328 346L330 350L359 333L360 331V299H355V328L273 280H264L240 294V299ZM476 537L391 488V390L416 405L418 401L390 385L389 384L387 385L359 401L361 405L386 390V488L301 537V509H297V541L298 543L326 560L329 556L304 541L322 531L323 530L389 492L453 529L473 541L448 556L451 560L479 543L480 541V509H476V537Z" fill="#FFF0DE" fill-opacity="0.05"/>
<path d="M421 439H417V471L418 473L446 490L449 486L424 471L480 439V434L421 467V439ZM480 333V330L479 331L480 333ZM353 471L328 486L330 490L359 473L360 471V439H356V467L271 418V320L296 335L298 331L269 315L268 314L267 315L240 330V333L241 335L266 320V418L240 433V439L268 422L353 471ZM416 545L418 541L390 524H387L359 541L361 545L386 530V560H391V530L416 545Z" fill="#FFF0DE" fill-opacity="0.05"/>
<path d="M271 460L296 475L298 471L269 454H267L240 470V473L241 475L266 460V558L264 559H273L271 558V460ZM480 473V470L479 471L480 473ZM301 677V648H297V681L298 683L326 699L329 696L304 681L388 632L455 670L473 681L448 696L451 699L479 683L480 681V648H476V677L391 628V560H386V628L301 677Z" fill="#FFF0DE" fill-opacity="0.05"/>
<path d="M421 578H417V611L418 613L446 630L449 626L424 611L480 579V573L421 607V578ZM240 579L268 562L353 611L328 626L330 630L359 613L360 611V578H355V607L273 560H264L240 573V579ZM476 817L391 768V670L416 685L418 681L390 664H387L359 681L361 685L386 670V768L301 817V788H297V821L298 823L326 839L329 836L304 821L322 810H323L389 772L453 809L473 821L448 836L451 839L479 823L480 821V788H476V817Z" fill="#FFF0DE" fill-opacity="0.05"/>
<path d="M421 718H417V751L418 753L446 769L449 766L424 751L480 718V713L421 747V718ZM480 613V610L479 611L480 613ZM353 751L328 766L330 769L359 753L360 751V718H356V747L271 698V600L296 615L298 611L269 594H267L240 610V613L241 615L266 600V698L240 713V718L268 702L353 751ZM416 824L418 821L390 804H387L359 821L361 824L386 810V839H391V810L416 824Z" fill="#FFF0DE" fill-opacity="0.05"/>
<path d="M271 740L296 755L298 751L269 734H267L240 750V753L241 754L266 740V838L264 839H273L271 838V740ZM480 753V750L479 751L480 753ZM301 957V928H297V961L298 963L326 979L329 975L304 961L388 912L455 950L473 961L448 975L451 979L479 963L480 961V928H476V957L391 908V839H386V908L301 957Z" fill="#FFF0DE" fill-opacity="0.05"/>
<path d="M421 858H417V891L418 893L446 909L449 905L424 891L480 858V853L421 887V858ZM240 858L268 842L353 891L328 905L330 909L359 893L360 891V858H355V887L273 839H264L240 853V858ZM476 1097L391 1048V950L416 964L418 960L390 944H387L359 960L361 964L386 950V1048L301 1097V1068H297V1101L298 1103L326 1119L329 1115L304 1101L322 1090L323 1089L389 1052L453 1089L473 1101L448 1115L451 1119L479 1103L480 1101V1068H476V1097Z" fill="#FFF0DE" fill-opacity="0.05"/>
<path d="M421 998H417V1031L418 1033L446 1049L449 1045L424 1031L480 998V993L421 1027V998ZM480 892V890L479 891L480 892ZM353 1031L328 1045L330 1049L359 1033L360 1031V998H356V1027L271 978V880L296 894L298 890L269 874H267L240 890V892L241 894L266 880V978L240 993V998L268 982L353 1031ZM416 1104L418 1100L390 1084H387L359 1100L361 1104L386 1090V1119H391V1090L416 1104Z" fill="#FFF0DE" fill-opacity="0.05"/>
<path d="M271 1020L296 1034L298 1030L269 1014H267L240 1030V1032L241 1034L266 1020V1118L264 1119H273L271 1118V1020ZM480 1032V1030H479L480 1032ZM541 118V89H537V122L538 124L566 140L569 136L544 122L628 73L695 111L713 122L688 136L691 140L719 124L720 122V89H716V118L631 69V0H626V69L541 118Z" fill="#FFF0DE" fill-opacity="0.05"/>
<path d="M661 19H657V52L658 54L686 70L689 66L664 52L720 19V14L661 48V19ZM480 19L508 3L593 52L568 66L570 70L599 54L600 52V19H595V48L513 0H504L480 14V19ZM716 258L631 209V111L656 125L658 121L630 105H627L599 121L601 125L626 111V209L541 258V229H537V261L538 263L566 280L569 276L544 261L562 251L563 250L629 213L693 250L713 261L688 276L691 280L719 264L720 262V229H716V258Z" fill="#FFF0DE" fill-opacity="0.05"/>
<path d="M661 159H657V192L658 193L686 210L689 206L664 192L720 159V154L661 188V159ZM720 53V51H719L720 53ZM593 192L568 206L570 210L599 193L600 192V159H595V188L511 139V41L536 55L538 51L509 35H507L480 51V53L481 55L506 41V139L480 154V159L508 142L593 192ZM656 265L658 261L630 245L628 244L627 245L599 261L601 265L626 251V280H631V251L656 265Z" fill="#FFF0DE" fill-opacity="0.05"/>
<path d="M511 181L536 195L538 191L510 175H507L480 191V193L481 195L506 181V279L504 280H513L511 279V181ZM720 193V191H719L720 193ZM541 397V369H537V401L538 403L566 420L569 416L544 401L628 352L695 391L713 401L688 416L691 420L719 403L720 401V369H716V397L631 348V280H626V348L541 397Z" fill="#FFF0DE" fill-opacity="0.05"/>
<path d="M661 299H657V331L658 333L686 350L689 346L664 331L720 299V294L661 328V299ZM480 299L508 282L593 331L568 346L570 350L599 333L600 331V299H595V328L513 280H504L480 294V299ZM716 537L631 488V390L656 405L658 401L630 385L628 384L627 385L599 401L601 405L626 390V488L541 537V509H537V541L538 543L566 560L569 556L544 541L562 531L563 530L629 492L693 529L713 541L688 556L691 560L719 543L720 541V509H716V537Z" fill="#FFF0DE" fill-opacity="0.05"/>
<path d="M661 439H657V471L658 473L686 490L689 486L664 471L720 439V434L661 467V439ZM720 333V330L719 331L720 333ZM593 471L568 486L570 490L599 473L600 471V439H595V467L511 418V320L536 335L538 331L509 315L508 314L507 315L480 330V333L481 335L506 320V418L480 433V439L508 422L593 471ZM656 545L658 541L630 524H627L599 541L601 545L626 530V560H631V530L656 545Z" fill="#FFF0DE" fill-opacity="0.05"/>
<path d="M511 460L536 475L538 471L510 454H507L480 470V473L481 475L506 460V558L504 559H513L511 558V460ZM720 473V470L719 471L720 473ZM541 677V648H537V681L538 683L566 699L569 696L544 681L628 632L695 670L713 681L688 696L691 699L719 683L720 681V648H716V677L631 628V560H626V628L541 677Z" fill="#FFF0DE" fill-opacity="0.05"/>
<path d="M661 578H657V611L658 613L686 630L689 626L664 611L720 579V573L661 607V578ZM480 579L508 562L593 611L568 626L570 629L599 613L600 611V578H595V607L513 560H504L480 573V579ZM716 817L631 768V670L656 685L658 681L630 664H627L599 681L601 685L626 670V768L541 817V788H537V821L538 823L566 839L569 836L544 821L562 810H563L629 772L693 809L713 821L688 836L691 839L719 823L720 821V788H716V817Z" fill="#FFF0DE" fill-opacity="0.05"/>
<path d="M661 718H657V751L658 753L686 769L689 766L664 751L720 718V713L661 747V718ZM720 613V610L719 611L720 613ZM593 751L568 765L570 769L599 753L600 751V718H595V747L511 698V600L536 615L538 611L509 594H507L480 610V613L481 615L506 600V698L480 713V718L508 702L593 751ZM656 824L658 821L630 804H627L599 821L601 824L626 810V839H631V810L656 824Z" fill="#FFF0DE" fill-opacity="0.05"/>
<path d="M511 740L536 755L538 751L510 734H507L480 750V753L481 754L506 740V838L504 839H513L511 838V740ZM720 753V750L719 751L720 753ZM541 957V928H537V961L538 963L566 979L569 975L544 961L628 912L695 950L713 961L688 975L691 979L719 963L720 961V928H716V957L631 908V839H626V908L541 957Z" fill="#FFF0DE" fill-opacity="0.05"/>
<path d="M661 858H657V891L658 893L686 909L689 905L664 891L720 858V853L661 887V858ZM480 858L508 842L593 891L568 905L570 909L599 893L600 891V858H595V887L513 839H504L480 853V858ZM716 1097L631 1048V950L656 964L658 960L630 944H627L599 960L601 964L626 950V1048L541 1097V1068H537V1101L538 1103L566 1119L569 1115L544 1101L562 1090L563 1089L629 1052L693 1089L713 1101L688 1115L691 1119L719 1103L720 1101V1068H716V1097Z" fill="#FFF0DE" fill-opacity="0.05"/>
<path d="M661 998H657V1031L658 1033L686 1049L689 1045L664 1031L720 998V993L661 1027V998ZM720 892V890L719 891L720 892ZM593 1031L568 1045L570 1049L599 1033L600 1031V998H595V1027L511 978V880L536 894L538 890L509 874H507L480 890V892L481 894L506 880V978L480 993V998L508 982L593 1031ZM656 1104L658 1100L630 1084H627L599 1100L601 1104L626 1090V1119H631V1090L656 1104Z" fill="#FFF0DE" fill-opacity="0.05"/>
<path d="M511 1020L536 1034L538 1030L510 1014H507L480 1030V1032L481 1034L506 1020V1118L504 1119H513L511 1118V1020ZM720 1032V1030H719L720 1032ZM781 118V89H777V122L778 124L806 140L809 136L784 122L868 73L935 111L953 122L928 136L931 140L959 124L960 122V89H956V118L871 69V0H866V69L781 118Z" fill="#FFF0DE" fill-opacity="0.05"/>
<path d="M901 19H897V52L898 54L926 70L929 66L904 52L960 19V14L901 48V19ZM720 19L748 3L833 52L808 66L810 70L839 54L840 52V19H835V48L753 0H744L720 14V19ZM956 258L871 209V111L896 125L898 121L870 105H867L839 121L841 125L866 111V209L781 258V229H777V261L778 263L806 280L809 276L784 261L802 251L803 250L869 213L933 250L953 261L928 276L931 280L959 264L960 262V229H956V258Z" fill="#FFF0DE" fill-opacity="0.05"/>
<path d="M901 159H897V192L898 193L926 210L929 206L904 192L960 159V154L901 188V159ZM960 53V51H959L960 53ZM833 192L808 206L810 210L839 193L840 192V159H835V188L751 139V41L776 55L778 51L749 35H747L720 51V53L721 55L746 41V139L720 154V159L748 142L833 192ZM896 265L898 261L870 245L868 244L867 245L839 261L841 265L866 251V280H871V251L896 265Z" fill="#FFF0DE" fill-opacity="0.05"/>
<path d="M751 181L776 195L778 191L750 175H747L720 191V193L721 195L746 181V279L744 280H753L751 279V181ZM960 193V191H959L960 193ZM781 397V369H777V401L778 403L806 420L809 416L784 401L868 352L935 391L953 401L928 416L931 420L959 403L960 401V369H956V397L871 348V280H866V348L781 397Z" fill="#FFF0DE" fill-opacity="0.05"/>
<path d="M901 299H897V331L898 333L926 350L929 346L904 331L960 299V294L901 328V299ZM720 299L748 282L833 331L808 346L810 350L839 333L840 331V299H835V328L753 280H744L720 294V299ZM956 537L871 488V390L896 405L898 401L870 385L868 384L867 385L839 401L841 405L866 390V488L781 537V509H777V541L778 543L806 560L809 556L784 541L802 531L803 530L869 492L933 529L953 541L928 556L931 560L959 543L960 541V509H956V537Z" fill="#FFF0DE" fill-opacity="0.05"/>
<path d="M901 439H897V471L898 473L926 490L929 486L904 471L960 439V434L901 467V439ZM960 333V330L959 331L960 333ZM833 471L808 486L810 490L839 473L840 471V439H835V467L751 418V320L776 335L778 331L749 315L748 314L747 315L720 330V333L721 335L746 320V418L720 433V439L748 422L833 471ZM896 545L898 541L870 524H867L839 541L841 545L866 530V560H871V530L896 545Z" fill="#FFF0DE" fill-opacity="0.05"/>
<path d="M751 460L776 475L778 471L750 454H747L720 470V473L721 475L746 460V558L744 559H753L751 558V460ZM960 473V470L959 471L960 473ZM781 677V648H777V681L778 683L806 699L809 696L784 681L868 632L935 670L953 681L928 696L931 699L959 683L960 681V648H956V677L871 628V560H866V628L781 677Z" fill="#FFF0DE" fill-opacity="0.05"/>
<path d="M901 578H897V611L898 613L926 630L929 626L904 611L960 579V573L901 607V578ZM720 579L748 562L833 611L808 626L810 630L839 613L840 611V578H835V607L753 560H744L720 573V579ZM956 817L871 768V670L896 685L898 681L870 664H867L839 681L841 685L866 670V768L781 817V788H777V821L778 823L806 839L809 836L784 821L802 810H803L869 772L933 809L953 821L928 836L931 839L959 823L960 821V788H956V817Z" fill="#FFF0DE" fill-opacity="0.05"/>
<path d="M901 718H897V751L898 753L926 769L929 766L904 751L960 718V713L901 747V718ZM960 613V610L959 611L960 613ZM833 751L808 766L810 769L839 753L840 751V718H835V747L751 698V600L776 615L778 611L749 594H747L720 610V613L721 615L746 600V698L720 713V718L748 702L833 751ZM896 824L898 821L870 804H867L839 821L841 824L866 810V839H871V810L896 824Z" fill="#FFF0DE" fill-opacity="0.05"/>
<path d="M751 740L776 755L778 751L750 734H747L720 750V753L721 754L746 740V838L744 839H753L751 838V740ZM960 753V750L959 751L960 753ZM781 957V928H777V961L778 963L806 979L809 975L784 961L868 912L935 950L953 961L928 975L931 979L959 963L960 961V928H956V957L871 908V839H866V908L781 957Z" fill="#FFF0DE" fill-opacity="0.05"/>
<path d="M901 858H897V891L898 893L926 909L929 905L904 891L960 858V853L901 887V858ZM720 858L748 842L833 891L808 905L810 909L839 893L840 891V858H835V887L753 839H744L720 853V858ZM956 1097L871 1048V950L896 964L898 960L870 944H867L839 960L841 964L866 950V1048L781 1097V1068H777V1101L778 1103L806 1119L809 1115L784 1101L802 1090L803 1089L869 1052L933 1089L953 1101L928 1115L931 1119L959 1103L960 1101V1068H956V1097Z" fill="#FFF0DE" fill-opacity="0.05"/>
<path d="M901 998H897V1031L898 1033L926 1049L929 1045L904 1031L960 998V993L901 1027V998ZM960 892V890L959 891L960 892ZM833 1031L808 1045L810 1049L839 1033L840 1031V998H835V1027L751 978V880L776 894L778 890L749 874H747L720 890V892L721 894L746 880V978L720 993V998L748 982L833 1031ZM896 1104L898 1100L870 1084H867L839 1100L841 1104L866 1090V1119H871V1090L896 1104Z" fill="#FFF0DE" fill-opacity="0.05"/>
<path d="M751 1020L776 1034L778 1030L750 1014H747L720 1030V1032L721 1034L746 1020V1118L744 1119H753L751 1118V1020ZM960 1032V1030H959L960 1032ZM1021 118V89H1017V122L1018 124L1046 140L1049 136L1023 122L1108 73L1175 111L1193 122L1168 136L1171 140L1199 124L1200 122V89H1196V118L1111 69V0H1106V69L1021 118Z" fill="#FFF0DE" fill-opacity="0.05"/>
<path d="M1141 19H1137V52L1138 54L1166 70L1169 66L1143 52L1200 19V14L1141 48V19ZM960 19L988 3L1073 52L1048 66L1050 70L1079 54L1080 52V19H1075V48L993 0H984L960 14V19ZM1196 258L1111 209V111L1136 125L1138 121L1110 105H1107L1079 121L1081 125L1106 111V209L1021 258V229H1017V261L1018 263L1046 280L1049 276L1024 261L1042 251L1043 250L1109 213L1173 250L1193 261L1168 276L1171 280L1199 264L1200 262V229H1196V258Z" fill="#FFF0DE" fill-opacity="0.05"/>
<path d="M1141 159H1137V192L1138 193L1166 210L1169 206L1143 192L1200 159V154L1141 188V159ZM1200 53V51H1199L1200 53ZM1073 192L1048 206L1050 210L1079 193L1080 192V159H1075V188L991 139V41L1016 55L1018 51L989 35H987L960 51V53L961 55L986 41V139L960 154V159L988 142L1073 192ZM1136 265L1138 261L1110 245L1108 244L1107 245L1079 261L1081 265L1106 251V280H1111V251L1136 265Z" fill="#FFF0DE" fill-opacity="0.05"/>
<path d="M991 181L1016 195L1018 191L990 175H987L960 191V193L961 195L986 181V279L984 280H993L991 279V181ZM1200 193V191H1199L1200 193ZM1021 397V369H1017V401L1018 403L1046 420L1049 416L1023 401L1108 352L1175 391L1193 401L1168 416L1171 420L1199 403L1200 401V369H1196V397L1111 348V280H1106V348L1021 397Z" fill="#FFF0DE" fill-opacity="0.05"/>
<path d="M1141 299H1137V331L1138 333L1166 350L1169 346L1143 331L1200 299V294L1141 328V299ZM960 299L988 282L1073 331L1048 346L1050 350L1079 333L1080 331V299H1075V328L993 280H984L960 294V299ZM1196 537L1111 488V390L1136 405L1138 401L1110 385L1108 384L1107 385L1079 401L1081 405L1106 390V488L1021 537V509H1017V541L1018 543L1046 560L1049 556L1024 541L1042 531L1043 530L1109 492L1173 529L1193 541L1168 556L1171 560L1199 543L1200 541V509H1196V537Z" fill="#FFF0DE" fill-opacity="0.05"/>
<path d="M1141 439H1137V471L1138 473L1166 490L1169 486L1143 471L1200 439V434L1141 467V439ZM1200 333V330L1199 331L1200 333ZM1073 471L1048 486L1050 490L1079 473L1080 471V439H1075V467L991 418V320L1016 335L1018 331L989 315L988 314L987 315L960 330V333L961 335L986 320V418L960 433V439L988 422L1073 471ZM1136 545L1138 541L1110 524H1107L1079 541L1081 545L1106 530V560H1111V530L1136 545Z" fill="#FFF0DE" fill-opacity="0.05"/>
<path d="M991 460L1016 475L1018 471L990 454H987L960 470V473L961 475L986 460V558L984 559H993L991 558V460ZM1200 473V470L1199 471L1200 473ZM1021 677V648H1017V681L1018 683L1046 699L1049 696L1023 681L1108 632L1175 670L1193 681L1168 696L1171 699L1199 683L1200 681V648H1196V677L1111 628V560H1106V628L1021 677Z" fill="#FFF0DE" fill-opacity="0.05"/>
<path d="M1141 578H1137V611L1138 613L1166 630L1169 626L1143 611L1200 579V573L1141 607V578ZM960 579L988 562L1073 611L1048 626L1050 630L1079 613L1080 611V578H1075V607L993 560H984L960 573V579ZM1196 817L1111 768V670L1136 685L1138 681L1110 664H1107L1079 681L1081 685L1106 670V768L1021 817V788H1017V821L1018 823L1046 839L1049 836L1024 821L1042 810H1043L1109 772L1173 809L1193 821L1168 836L1171 839L1199 823L1200 821V788H1196V817Z" fill="#FFF0DE" fill-opacity="0.05"/>
<path d="M1141 718H1137V751L1138 753L1166 769L1169 766L1143 751L1200 718V713L1141 747V718ZM1200 613V610L1199 611L1200 613ZM1073 751L1048 766L1050 769L1079 753L1080 751V718H1075V747L991 698V600L1016 615L1018 611L989 594H987L960 610V613L961 615L986 600V698L960 713V718L988 702L1073 751ZM1136 824L1138 821L1110 804H1107L1079 821L1081 824L1106 810V839H1111V810L1136 824Z" fill="#FFF0DE" fill-opacity="0.05"/>
<path d="M991 740L1016 755L1018 751L990 734H987L960 750V753L961 754L986 740V838L984 839H993L991 838V740ZM1200 753V750L1199 751L1200 753ZM1021 957V928H1017V961L1018 963L1046 979L1049 975L1023 961L1108 912L1175 950L1193 961L1168 975L1171 979L1199 963L1200 961V928H1196V957L1111 908V839H1106V908L1021 957Z" fill="#FFF0DE" fill-opacity="0.05"/>
<path d="M1141 858H1137V891L1138 893L1166 909L1169 905L1143 891L1200 858V853L1141 887V858ZM960 858L988 842L1073 891L1048 905L1050 909L1079 893L1080 891V858H1075V887L993 839H984L960 853V858ZM1196 1097L1111 1048V950L1136 964L1138 960L1110 944H1107L1079 960L1081 964L1106 950V1048L1021 1097V1068H1017V1101L1018 1103L1046 1119L1049 1115L1024 1101L1042 1090L1043 1089L1109 1052L1173 1089L1193 1101L1168 1115L1171 1119L1199 1103L1200 1101V1068H1196V1097Z" fill="#FFF0DE" fill-opacity="0.05"/>
<path d="M1141 998H1137V1031L1138 1033L1166 1049L1169 1045L1143 1031L1200 998V993L1141 1027V998ZM1200 892V890L1199 891L1200 892ZM1073 1031L1048 1045L1050 1049L1079 1033L1080 1031V998H1075V1027L991 978V880L1016 894L1018 890L989 874H987L960 890V892L961 894L986 880V978L960 993V998L988 982L1073 1031ZM1136 1104L1138 1100L1110 1084H1107L1079 1100L1081 1104L1106 1090V1119H1111V1090L1136 1104Z" fill="#FFF0DE" fill-opacity="0.05"/>
<path d="M991 1020L1016 1034L1018 1030L990 1014H987L960 1030V1032L961 1034L986 1020V1118L984 1119H993L991 1118V1020ZM1200 1032V1030H1199L1200 1032ZM1261 118V89H1257V122L1258 124L1286 140L1289 136L1263 122L1348 73L1415 111L1433 122L1408 136L1411 140L1439 124L1440 122V89H1436V118L1351 69V0H1346V69L1261 118Z" fill="#FFF0DE" fill-opacity="0.05"/>
<path d="M1381 19H1377V52L1378 54L1406 70L1408 66L1383 52L1440 19V14L1381 48V19ZM1200 19L1228 3L1313 52L1288 66L1290 70L1319 54L1320 52V19H1315V48L1233 0H1224L1200 14V19ZM1436 258L1351 209V111L1376 125L1378 121L1350 105H1347L1319 121L1321 125L1346 111V209L1261 258V229H1257V261L1258 263L1286 280L1289 276L1264 261L1282 251L1283 250L1349 213L1413 250L1433 261L1408 276L1411 280L1439 264L1440 262V229H1436V258Z" fill="#FFF0DE" fill-opacity="0.05"/>
<path d="M1381 159H1377V192L1378 193L1406 210L1408 206L1383 192L1440 159V154L1381 188V159ZM1440 53V51H1439L1440 53ZM1313 192L1288 206L1290 210L1319 193L1320 192V159H1315V188L1231 139V41L1256 55L1258 51L1229 35H1227L1200 51V53L1201 55L1226 41V139L1200 154V159L1228 142L1313 192ZM1376 265L1378 261L1350 245L1348 244L1347 245L1319 261L1321 265L1346 251V280H1351V251L1376 265Z" fill="#FFF0DE" fill-opacity="0.05"/>
<path d="M1231 181L1256 195L1258 191L1230 175H1227L1200 191V193L1201 195L1226 181V279L1224 280H1233L1231 279V181ZM1440 193V191H1439L1440 193ZM1261 397V369H1257V401L1258 403L1286 420L1289 416L1263 401L1348 352L1415 391L1433 401L1408 416L1411 420L1439 403L1440 401V369H1436V397L1351 348V280H1346V348L1261 397Z" fill="#FFF0DE" fill-opacity="0.05"/>
<path d="M1381 299H1377V331L1378 333L1406 350L1408 346L1383 331L1440 299V294L1381 328V299ZM1200 299L1228 282L1313 331L1288 346L1290 350L1319 333L1320 331V299H1315V328L1233 280H1224L1200 294V299ZM1436 537L1351 488V390L1376 405L1378 401L1350 385L1348 384L1347 385L1319 401L1321 405L1346 390V488L1261 537V509H1257V541L1258 543L1286 560L1289 556L1264 541L1282 531L1283 530L1349 492L1413 529L1433 541L1408 556L1411 560L1439 543L1440 541V509H1436V537Z" fill="#FFF0DE" fill-opacity="0.05"/>
<path d="M1381 439H1377V471L1378 473L1406 490L1408 486L1383 471L1440 439V434L1381 467V439ZM1440 333V330L1439 331L1440 333ZM1313 471L1288 486L1290 490L1319 473L1320 471V439H1315V467L1231 418V320L1256 335L1258 331L1229 315L1228 314L1227 315L1200 330V333L1201 335L1226 320V418L1200 433V439L1228 422L1313 471ZM1376 545L1378 541L1350 524H1347L1319 541L1321 545L1346 530V560H1351V530L1376 545Z" fill="#FFF0DE" fill-opacity="0.05"/>
<path d="M1231 460L1256 475L1258 471L1230 454H1227L1200 470V473L1201 475L1226 460V558L1224 559H1233L1231 558V460ZM1440 473V470L1439 471L1440 473ZM1261 677V648H1257V681L1258 683L1286 699L1289 696L1263 681L1348 632L1415 670L1433 681L1408 696L1411 699L1439 683L1440 681V648H1436V677L1351 628V560H1346V628L1261 677Z" fill="#FFF0DE" fill-opacity="0.05"/>
<path d="M1381 578H1377V611L1378 613L1406 630L1408 626L1383 611L1440 579V573L1381 607V578ZM1200 579L1228 562L1313 611L1288 626L1290 630L1319 613L1320 611V578H1315V607L1233 560H1224L1200 573V579ZM1436 817L1351 768V670L1376 685L1378 681L1350 664H1347L1319 681L1321 685L1346 670V768L1261 817V788H1257V821L1258 823L1286 839L1289 836L1264 821L1282 810H1283L1349 772L1413 809L1433 821L1408 836L1411 839L1439 823L1440 821V788H1436V817Z" fill="#FFF0DE" fill-opacity="0.05"/>
<path d="M1381 718H1377V751L1378 753L1406 769L1408 766L1383 751L1440 718V713L1381 747V718ZM1440 613V610L1439 611L1440 613ZM1313 751L1288 766L1290 769L1319 753L1320 751V718H1315V747L1231 698V600L1256 615L1258 611L1229 594H1227L1200 610V613L1201 615L1226 600V698L1200 713V718L1228 702L1313 751ZM1376 824L1378 821L1350 804H1347L1319 821L1321 824L1346 810V839H1351V810L1376 824Z" fill="#FFF0DE" fill-opacity="0.05"/>
<path d="M1231 740L1256 755L1258 751L1230 734H1227L1200 750V753L1201 754L1226 740V838L1224 839H1233L1231 838V740ZM1440 753V750L1439 751L1440 753ZM1261 957V928H1257V961L1258 963L1286 979L1289 975L1263 961L1348 912L1415 950L1433 961L1408 975L1411 979L1439 963L1440 961V928H1436V957L1351 908V839H1346V908L1261 957Z" fill="#FFF0DE" fill-opacity="0.05"/>
<path d="M1381 858H1377V891L1378 893L1406 909L1408 905L1383 891L1440 858V853L1381 887V858ZM1200 858L1228 842L1313 891L1288 905L1290 909L1319 893L1320 891V858H1315V887L1233 839H1224L1200 853V858ZM1436 1097L1351 1048V950L1376 964L1378 960L1350 944H1347L1319 960L1321 964L1346 950V1048L1261 1097V1068H1257V1101L1258 1103L1286 1119L1289 1115L1264 1101L1282 1090L1283 1089L1349 1052L1413 1089L1433 1101L1408 1115L1411 1119L1439 1103L1440 1101V1068H1436V1097Z" fill="#FFF0DE" fill-opacity="0.05"/>
<path d="M1381 998H1377V1031L1378 1033L1406 1049L1408 1045L1383 1031L1440 998V993L1381 1027V998ZM1440 892V890L1439 891L1440 892ZM1313 1031L1288 1045L1290 1049L1319 1033L1320 1031V998H1315V1027L1231 978V880L1256 894L1258 890L1229 874H1227L1200 890V892L1201 894L1226 880V978L1200 993V998L1228 982L1313 1031ZM1376 1104L1378 1100L1350 1084H1347L1319 1100L1321 1104L1346 1090V1119H1351V1090L1376 1104Z" fill="#FFF0DE" fill-opacity="0.05"/>
<path d="M1231 1020L1256 1034L1258 1030L1230 1014H1227L1200 1030V1032L1201 1034L1226 1020V1118L1224 1119H1233L1231 1118V1020ZM1440 1032V1030H1439L1440 1032Z" fill="#FFF0DE" fill-opacity="0.05"/>
</g>
<defs>
<clipPath id="clip0_9_2">
<rect width="1440" height="1119" fill="white"/>
</clipPath>
</defs>
</svg>
