<svg xmlns="http://www.w3.org/2000/svg" data-name="Layer 1" viewBox="0 0 100 125" x="0px" y="0px">
  <path d="M80.21,55.24c.08.34.87.61,1.81.61s1.69-.29,1.73-.68v-.1c1.29-12.34-6.13-25.51-17.84-31.16a32.94,32.94,0,0,0-18.73-3.16,30.29,30.29,0,0,0-9.14,2.58,29.6,29.6,0,0,0-7.63,5.42h0c-.28.25,0,1,.56,1.74s1.29,1.14,1.58,1l.08-.05A31,31,0,0,1,40,28.14a30.88,30.88,0,0,1,7.79-1,32.34,32.34,0,0,1,32.46,28.1Z" />
  <path d="M26.25,42.05c0-.19-.54-.72-1.33-1.22s-1.53-.78-1.69-.63l0,0A26.61,26.61,0,0,0,16.31,58.9a90.48,90.48,0,0,0,2,18.61c0,.19.8.34,1.73.34s1.69-.15,1.72-.34v-.06a90.46,90.46,0,0,0,2-18.6,47,47,0,0,1,2.52-16.8Z" />
  <path d="M60.38,49.26a12.33,12.33,0,0,1,1.56,3.52,15,15,0,0,1,.5,4.09c.12,3.35.25,6.71.37,10.08Q63.31,77,64.29,87.1c0,.42.8.75,1.73.75s1.69-.33,1.72-.75V87q1-10.08,1.48-20.16c.12-3.37.25-6.72.37-10.08a19.45,19.45,0,0,0-3-11.6A19,19,0,0,0,45,37.3C37.14,39.61,31.82,47.48,32.29,55h0c0,.48.79.84,1.73.83s1.73-.3,1.8-.66l0-.11A14,14,0,0,1,46.78,43.52,13.07,13.07,0,0,1,60.38,49.26Z" />
  <path d="M50,95.85c.93,0,1.71-.17,1.77-.4v-.06a119.82,119.82,0,0,0-.06-43.14c0-.22-.79-.4-1.72-.4s-1.7.18-1.73.4v.07a119.77,119.77,0,0,0,0,43.13h0C48.31,95.68,49.08,95.85,50,95.85Z" />
  <path d="M94,35.85c.85-.37,1.35-1.09,1.12-1.63l-.06-.15a45.85,45.85,0,0,0-17.7-21.86,50.55,50.55,0,0,0-54.88.07A45.77,45.77,0,0,0,4.85,34.2h0c-.21.56.31,1.28,1.17,1.65s1.75.3,2-.16l.07-.13A46.3,46.3,0,0,1,26,17.71a50.06,50.06,0,0,1,48.17.05A46.34,46.34,0,0,1,92,35.67h0C92.28,36.14,93.16,36.22,94,35.85Z" />
  <path d="M32.25,87.67h0a4.9,4.9,0,0,0,1.77.18,4.94,4.94,0,0,0,1.77-.18v0A25.51,25.51,0,0,0,35.74,68,4.15,4.15,0,0,0,34,67.85a4.21,4.21,0,0,0-1.73.19v0A25.54,25.54,0,0,0,32.25,87.67Z" />
  <path d="M82,79.85a6.18,6.18,0,0,0,1.77-.14v0A16.68,16.68,0,0,0,83.74,64,5.39,5.39,0,0,0,82,63.85a5.48,5.48,0,0,0-1.73.15v0a16.7,16.7,0,0,0,0,15.69h0A6.13,6.13,0,0,0,82,79.85Z" />
</svg>